<svg width="94" height="94" viewBox="0 0 94 94" fill="none" xmlns="http://www.w3.org/2000/svg">
<g clip-path="url(#clip0_1_2)">
<path d="M47 7.83333C25.3688 7.83333 7.83333 25.3688 7.83333 47C7.83333 68.6312 25.3688 86.1667 47 86.1667C68.6312 86.1667 86.1667 68.6312 86.1667 47C86.1667 36.6124 82.0402 26.6502 74.695 19.305C67.3498 11.9598 57.3876 7.83333 47 7.83333ZM47 19.5833C53.4893 19.5833 58.75 24.844 58.75 31.3333C58.75 37.8227 53.4893 43.0833 47 43.0833C40.5107 43.0833 35.25 37.8227 35.25 31.3333C35.25 24.844 40.5107 19.5833 47 19.5833ZM69.0117 63.2933C63.8395 70.2587 55.6757 74.365 47 74.365C38.3243 74.365 30.1605 70.2587 24.9883 63.2933C24.2019 62.1312 24.0973 60.6371 24.7142 59.3767L25.5367 57.6533C27.4749 53.5447 31.608 50.9216 36.1508 50.9167H57.8492C62.3282 50.9226 66.4142 53.4745 68.385 57.4967L69.2858 59.3375C69.918 60.6084 69.8131 62.1218 69.0117 63.2933Z" fill="#EFEFEF"/>
</g>
<defs>
<clipPath id="clip0_1_2">
<rect width="94" height="94" fill="white"/>
</clipPath>
</defs>
</svg>
